<?xml version="1.0" encoding="iso-8859-1"?>
<!-- Uploaded to: SVG Repo, www.svgrepo.com, Generator: SVG Repo Mixer Tools -->
<svg fill="#000000" height="800px" width="800px" version="1.1" id="Capa_1" xmlns="http://www.w3.org/2000/svg" xmlns:xlink="http://www.w3.org/1999/xlink" 
	 viewBox="0 0 511.998 511.998" xml:space="preserve">
<g>
	<g>
		<path d="M325.806,344.422L229.26,440.97c-26.617,26.617-69.932,26.616-96.549,0c-12.894-12.895-19.995-30.038-19.995-48.274
			c0-10.362,2.3-20.367,6.643-29.444l7.989,7.989c4.415,4.416,10.242,6.666,16.096,6.666c4.906,0,9.834-1.581,13.965-4.794
			L345.77,226.609c24.858-3.166,47.846-14.362,65.854-32.37c21.491-21.491,33.328-50.064,33.328-80.456
			c0-30.392-11.836-58.966-33.328-80.458C390.135,11.835,361.562,0,331.17,0c-30.393,0-58.966,11.835-80.458,33.326
			c-18.443,18.445-29.19,41.702-32.297,65.766L71.84,287.541c-7.047,9.059-6.244,21.946,1.871,30.063l12.347,12.346
			c-29.206,44.155-24.383,104.349,14.472,143.205c44.363,44.361,116.549,44.363,160.912-0.002l96.545-96.548
			c8.875-8.872,23.312-8.874,32.184-0.002c4.299,4.298,6.665,10.013,6.665,16.09c0,6.079-2.367,11.794-6.665,16.093l-64.364,64.364
			c-8.887,8.887-8.887,23.295,0,32.182c4.444,4.444,10.268,6.666,16.09,6.666c5.824,0,11.648-2.221,16.092-6.666l64.364-64.364
			c12.895-12.895,19.997-30.04,19.997-48.275s-7.102-35.38-19.997-48.274C395.739,317.806,352.428,317.806,325.806,344.422z
			 M331.17,45.513c18.234,0,35.379,7.102,48.274,19.994c12.894,12.895,19.997,30.039,19.997,48.276
			c0,10.362-2.3,20.365-6.645,29.444l-91.07-91.07C310.803,47.811,320.809,45.513,331.17,45.513z M269.573,84.367l91.041,91.041
			c-9.077,4.345-19.082,6.643-29.444,6.643c-18.237,0-35.379-7.102-48.274-19.995C261.92,141.079,257.488,109.739,269.573,84.367z
			 M227.755,161.214c5.474,11.97,13.12,23.184,22.96,33.024c9.708,9.709,20.872,17.425,32.986,22.992L145.326,324.856l-25.228-25.23
			L227.755,161.214z"/>
	</g>
</g>
</svg>