<?xml version="1.0" encoding="iso-8859-1"?>
<!-- Uploaded to: SVG Repo, www.svgrepo.com, Generator: SVG Repo Mixer Tools -->
<!DOCTYPE svg PUBLIC "-//W3C//DTD SVG 1.1//EN" "http://www.w3.org/Graphics/SVG/1.1/DTD/svg11.dtd">
<svg fill="#000000" version="1.1" id="Capa_1" xmlns="http://www.w3.org/2000/svg" xmlns:xlink="http://www.w3.org/1999/xlink" 
	 width="800px" height="800px" viewBox="0 0 981.8 981.801"
	 xml:space="preserve">
<g>
	<path d="M707.951,67.7C649.55,24,572.451,0,490.95,0c-81.5,0-158.6,24-217,67.7c-29.5,22.1-52.9,48-69.4,77.2
		c-2.5,4.4-4.8,8.9-7,13.4h-71.6c-33.1,0-60,26.9-60,60v101.6h127.3h91.6h412.301h91.6h127.2V218.2c0-33.1-26.9-60-60-60h-71.7
		c-2.1-4.5-4.5-9-7-13.4C760.851,115.7,737.451,89.7,707.951,67.7z M292.95,158.2c8.3-9.4,17.9-18.2,29-26.5
		c44.7-33.4,104.7-51.8,169.1-51.8c64.301,0,124.4,18.4,169.101,51.8c11,8.2,20.7,17.1,29,26.5H292.95z"/>
	<path d="M915.951,379.8h-164.5h-130.6H361.05h-130.6H65.95l-26.9,539c-1.7,34.299,25.6,63,59.9,63h783.901
		c34.3,0,61.6-28.701,59.899-63L915.951,379.8z"/>
</g>
</svg>