<?xml version="1.0" encoding="iso-8859-1"?>
<!-- Uploaded to: SVG Repo, www.svgrepo.com, Generator: SVG Repo Mixer Tools -->
<svg fill="#000000" height="800px" width="800px" version="1.1" id="Capa_1" xmlns="http://www.w3.org/2000/svg" xmlns:xlink="http://www.w3.org/1999/xlink" 
	 viewBox="0 0 512 512" xml:space="preserve">
<g>
	<g>
		<path d="M162.909,0c-38.498,0-69.818,31.32-69.818,69.818c0,30.34,19.458,56.208,46.545,65.815v353.094
			c0,12.853,10.42,23.273,23.273,23.273c12.853,0,23.273-10.42,23.273-23.273V135.633c27.086-9.607,46.545-35.475,46.545-65.815
			C232.727,31.32,201.407,0,162.909,0z M162.909,93.091c-12.833,0-23.273-10.44-23.273-23.273s10.44-23.273,23.273-23.273
			s23.273,10.44,23.273,23.273S175.742,93.091,162.909,93.091z"/>
	</g>
</g>
<g>
	<g>
		<path d="M349.091,0c-38.498,0-69.818,31.32-69.818,69.818c0,30.34,19.458,56.208,46.545,65.815v353.094
			c0,12.853,10.42,23.273,23.273,23.273c12.853,0,23.273-10.42,23.273-23.273V135.633c27.086-9.607,46.545-35.475,46.545-65.815
			C418.909,31.32,387.589,0,349.091,0z M349.091,93.091c-12.833,0-23.273-10.44-23.273-23.273s10.44-23.273,23.273-23.273
			s23.273,10.44,23.273,23.273S361.923,93.091,349.091,93.091z"/>
	</g>
</g>
</svg>