<?xml version="1.0" encoding="iso-8859-1"?>
<!-- Uploaded to: SVG Repo, www.svgrepo.com, Generator: SVG Repo Mixer Tools -->
<svg fill="#000000" height="800px" width="800px" version="1.1" id="Capa_1" xmlns="http://www.w3.org/2000/svg" xmlns:xlink="http://www.w3.org/1999/xlink" 
	 viewBox="0 0 512 512" xml:space="preserve">
<g>
	<g>
		<path d="M472.128,219.336c-5.438-22.02-14.149-42.763-25.607-61.672c11.497-21.111,8.339-48.146-9.501-65.989
			c-10.512-10.512-24.487-16.299-39.353-16.299c-9.473,0-18.577,2.358-26.661,6.784c-18.899-11.451-39.635-20.158-61.646-25.594
			c-6.821-23.021-28.155-39.871-53.36-39.871s-46.539,16.85-53.359,39.872c-22.012,5.436-42.747,14.143-61.646,25.594
			c-8.084-4.424-17.19-6.784-26.661-6.784c-14.866,0-28.841,5.788-39.353,16.299c-17.84,17.841-20.998,44.876-9.501,65.987
			c-11.458,18.907-20.17,39.651-25.607,61.672C16.85,226.156,0,247.49,0,272.695c0,25.205,16.85,46.539,39.872,53.359
			c6.092,24.674,16.308,47.739,29.879,68.421c0.705,1.318,1.532,2.56,2.478,3.703c40.138,58.599,107.536,97.127,183.771,97.127
			s143.633-38.528,183.771-97.127c0.947-1.143,1.773-2.385,2.478-3.703c13.569-20.682,23.785-43.747,29.878-68.421
			C495.151,319.234,512,297.9,512,272.695C512,247.49,495.151,226.156,472.128,219.336z M256.002,450.782
			c-45.057,0-86.256-16.829-117.656-44.522h235.311C342.256,433.953,301.059,450.782,256.002,450.782z M427.608,320.333
			c-4.069,14.642-9.964,28.533-17.427,41.405H101.82c-7.463-12.873-13.358-26.763-17.427-41.405
			c16.118-9.759,26.912-27.461,26.912-47.638s-10.794-37.879-26.912-47.638c3.921-14.103,9.537-27.508,16.614-39.981
			c4.31,1.054,8.775,1.603,13.325,1.603c14.864,0,28.84-5.788,39.353-16.299c14.253-14.253,19.141-34.38,14.67-52.662
			c12.479-7.085,25.891-12.705,40.006-16.629c9.761,16.117,27.463,26.912,47.64,26.912s37.878-10.795,47.64-26.912
			c14.113,3.924,27.526,9.544,40.006,16.629c-4.473,18.284,0.416,38.409,14.67,52.663c10.513,10.51,24.488,16.298,39.353,16.298
			c4.55,0,9.016-0.549,13.325-1.603c7.079,12.472,12.695,25.878,16.614,39.981c-16.117,9.759-26.912,27.461-26.912,47.638
			C400.696,292.872,411.489,310.574,427.608,320.333z"/>
	</g>
</g>
</svg>