<?xml version="1.0" encoding="iso-8859-1"?>
<!-- Uploaded to: SVG Repo, www.svgrepo.com, Generator: SVG Repo Mixer Tools -->
<!DOCTYPE svg PUBLIC "-//W3C//DTD SVG 1.1//EN" "http://www.w3.org/Graphics/SVG/1.1/DTD/svg11.dtd">
<svg fill="#000000" version="1.1" id="Capa_1" xmlns="http://www.w3.org/2000/svg" xmlns:xlink="http://www.w3.org/1999/xlink" 
	 width="800px" height="800px" viewBox="0 0 63.282 63.282"
	 xml:space="preserve">
<g>
	<g>
		<path d="M31.641,63.282c17.447,0,31.64-14.194,31.64-31.641C63.281,14.194,49.088,0,31.641,0C14.194,0,0,14.194,0,31.641
			C0,49.087,14.194,63.282,31.641,63.282z M31.641,3.125c12.333,0,22.86,7.871,26.827,18.854C54.702,13.1,45.907,6.872,35.655,6.872
			c-1.008,0-1.998,0.067-2.973,0.185c9.054,1.084,16.604,7.047,19.946,15.189c-3.456-5.868-10.036-9.838-17.597-9.838
			c-0.878,0-1.736,0.072-2.584,0.175c7.311,0.91,13.361,5.677,15.931,12.141c-2.629-4.324-7.638-7.251-13.395-7.251
			c-0.668,0-1.321,0.053-1.966,0.129c6.021,0.725,10.925,4.781,12.556,10.146c-2.243-2.565-6.627-4.535-12.007-5.327
			c5.005,2.014,8.295,5.391,8.295,9.221c0,3.83-3.29,7.207-8.295,9.22c5.38-0.791,9.764-2.761,12.007-5.326
			c-1.631,5.364-6.534,9.42-12.556,10.146c0.645,0.075,1.298,0.128,1.966,0.128c5.757,0,10.766-2.927,13.395-7.251
			c-2.569,6.464-8.621,11.231-15.931,12.141c0.848,0.104,1.706,0.175,2.584,0.175c7.562,0,14.141-3.97,17.597-9.837
			c-3.343,8.141-10.893,14.104-19.946,15.188c0.975,0.116,1.968,0.185,2.973,0.185c10.252,0,19.049-6.229,22.813-15.108
			c-3.966,10.982-14.493,18.856-26.828,18.856c-15.724,0-28.516-12.792-28.516-28.516C3.125,15.917,15.917,3.125,31.641,3.125z"/>
		<path d="M34.878,30.952c0.047,0.222,0.073,0.451,0.073,0.688c0,1.217-0.667,2.271-1.648,2.847l0.141,0.039
			c-0.148,0.545-0.329,1.266-0.521,2.081c-0.079,0.338-0.159,0.689-0.239,1.061c-0.23,1.055-0.457,2.218-0.649,3.389
			c-0.021,0.127-0.04,0.253-0.06,0.379c-0.219,1.405-0.374,2.795-0.406,4.008c-0.003,0.114-0.009,0.23-0.01,0.342
			c-0.008,1.17,0.118,2.135,0.437,2.732c0.017,0.002,0.04,0.005,0.054,0.006c0.523,0.063,0.763-0.891,0.804-2.821
			c0-0.015,0-0.032,0.001-0.047c0.009-0.48,0.009-1.005-0.004-1.607c-0.019-0.779-0.019-1.813-0.008-2.922
			c0-0.057,0-0.114,0.002-0.171c0.01-0.975,0.026-1.994,0.047-2.945c3.426-0.112,6.17-2.918,6.17-6.37
			c0-3.524-2.856-6.381-6.38-6.381C32.683,25.26,37.449,27.036,34.878,30.952z"/>
		<path d="M27.903,37.122c-0.398,1.221-0.844,2.649-1.214,4.082c-0.123,0.475-0.235,0.944-0.335,1.409
			c-0.048,0.22-0.09,0.438-0.13,0.653c-0.11,0.588-0.201,1.159-0.247,1.688c-0.11,1.264-0.006,2.307,0.46,2.888
			c0.256,0.32,1.558,0.188,2.372,0.288c0,0,0.373,0.045,0.871,0.104c0.452,0.057,1.004,0.122,1.479,0.181
			c-0.232-0.686-0.325-1.594-0.323-2.621c0-0.172,0.003-0.346,0.008-0.523c0.036-1.132,0.17-2.376,0.354-3.61
			c0.027-0.183,0.055-0.364,0.084-0.546c0.396-2.469,0.952-4.807,1.253-5.991c-0.526,0.215-1.289,0.175-1.289,0.175l-1.263-0.262
			c-0.449-0.176-0.767-0.435-1.067-0.989c-0.016,0.013-0.033,0.024-0.05,0.037c-0.076,0.35-0.317,1.078-0.624,2.008
			c-1.346-0.946-2.243-2.584-2.243-4.453c0-2.929,2.19-5.311,4.88-5.311c0.288,0,0.521-0.233,0.521-0.521
			c0-0.287-0.233-0.521-0.521-0.521c-3.266,0-5.922,2.849-5.922,6.353C24.957,33.978,26.144,36.019,27.903,37.122z"/>
		<path d="M28.851,31.64c0,1.541,1.249,2.789,2.79,2.789c0.591,0,1.138-0.188,1.59-0.502c0.723-0.504,1.199-1.341,1.199-2.287
			c0-0.023-0.007-0.044-0.007-0.066c-0.036-1.51-1.264-2.724-2.783-2.724C30.1,28.85,28.851,30.099,28.851,31.64z"/>
	</g>
</g>
</svg>